<svg xmlns="http://www.w3.org/2000/svg" xmlns:xlink="http://www.w3.org/1999/xlink" height="40px" width="60px" version="1.1" viewBox="30 40 540 300" >
  <title>Resonance Writing Services</title>
  <defs>
    <style type="text/css">
*{stroke-linecap:butt;stroke-linejoin:round;}
  </style>
  </defs>
  
  <g id="figure_1">
    
    <g id="axes_1">
      
      <g id="line2d_1">
        <path clip-path="url(#pa82c4e93f3)" d=" M 42.5 294.611 L 49.0233 294.5 L 55.5467 294.166 L 61.9842 293.612 L 68.25 292.85 L 74.3442 291.886 L 80.2667 290.726 L 85.9317 289.393 L 91.425 287.874 L 96.6608 286.199 L 101.725 284.346 L 106.532 282.353 L 111.167 280.192 L 115.63 277.864 L 119.836 275.422 L 123.87 272.828 L 127.818 270.023 L 131.595 267.063 L 135.2 263.956 L 138.719 260.625 L 142.067 257.152 L 145.328 253.447 L 148.504 249.499 L 151.594 245.297 L 154.598 240.828 L 157.517 236.082 L 160.349 231.048 L 163.096 225.718 L 165.843 219.892 L 168.503 213.722 L 171.164 206.973 L 173.739 199.83 L 176.314 192.019 L 178.889 183.475 L 181.464 174.129 L 184.039 163.918 L 186.614 152.792 L 189.275 140.316 L 192.193 125.532 L 195.713 106.457 L 202.493 69.3885 L 204.468 60.0261 L 206.012 53.7194 L 207.3 49.3528 L 208.416 46.3413 L 209.36 44.4201 L 210.132 43.3082 L 210.819 42.6846 L 211.42 42.429 L 211.935 42.4295 L 212.45 42.6345 L 213.051 43.1332 L 213.738 44.0441 L 214.51 45.4979 L 215.368 47.6313 L 216.312 50.5801 L 217.428 54.8218 L 218.716 60.6291 L 220.261 68.6886 L 222.149 79.7782 L 224.81 96.838 L 232.535 147.097 L 235.453 164.252 L 238.114 178.62 L 240.689 191.351 L 243.264 202.97 L 245.839 213.55 L 248.414 223.18 L 250.989 231.947 L 253.564 239.939 L 256.225 247.469 L 258.886 254.337 L 261.632 260.809 L 264.379 266.725 L 267.212 272.306 L 270.13 277.569 L 273.134 282.527 L 276.224 287.196 L 279.4 291.592 L 282.662 295.73 L 286.009 299.625 L 289.528 303.379 L 293.133 306.905 L 296.91 310.292 L 300.858 313.535 L 304.978 316.633 L 309.356 319.643 L 313.905 322.499 L 318.712 325.254 L 323.776 327.899 L 329.183 330.468 L 334.848 332.912 L 340.942 335.297 L 347.38 337.575 L 354.247 339.77 L 361.628 341.895 L 369.611 343.958 L 378.194 345.943 L 387.464 347.855 L 397.507 349.695 L 408.407 351.464 L 420.338 353.171 L 433.385 354.807 L 447.633 356.367 L 463.341 357.861 L 480.765 359.29 L 500.163 360.654 L 521.793 361.947 L 546.084 363.171 L 557.5 363.679" style="fill:none;stroke:#38A5DB;stroke-linecap:round;stroke-width:10;"/>
      </g>
      <g id="line2d_2">
        <path clip-path="url(#pa82c4e93f3)" d=" M 42.5 294.611 L 49.195 294.501 L 55.89 294.167 L 62.4992 293.615 L 68.9367 292.855 L 75.2025 291.895 L 81.2967 290.74 L 87.2192 289.392 L 92.97 287.854 L 98.4633 286.155 L 103.785 284.275 L 108.849 282.252 L 113.742 280.058 L 118.462 277.696 L 123.012 275.169 L 127.389 272.481 L 131.595 269.639 L 135.715 266.582 L 139.663 263.375 L 143.526 259.952 L 147.303 256.306 L 150.993 252.433 L 154.598 248.332 L 158.203 243.895 L 161.808 239.102 L 165.413 233.94 L 169.104 228.265 L 172.967 221.913 L 177.172 214.56 L 182.494 204.772 L 190.734 189.591 L 193.824 184.398 L 196.227 180.768 L 198.287 178.042 L 200.09 176.013 L 201.721 174.51 L 203.18 173.462 L 204.553 172.755 L 205.841 172.351 L 207.042 172.212 L 208.244 172.308 L 209.446 172.644 L 210.648 173.221 L 211.935 174.106 L 213.222 175.262 L 214.682 176.89 L 216.227 178.962 L 217.943 181.656 L 219.832 185.046 L 221.978 189.366 L 224.552 195.074 L 227.814 202.88 L 233.565 217.342 L 239.659 232.457 L 243.865 242.286 L 247.642 250.549 L 251.161 257.729 L 254.594 264.247 L 258.028 270.296 L 261.461 275.898 L 264.894 281.082 L 268.413 285.992 L 271.933 290.526 L 275.537 294.814 L 279.228 298.864 L 283.005 302.685 L 286.953 306.364 L 290.987 309.822 L 295.193 313.138 L 299.571 316.307 L 304.12 319.329 L 308.927 322.254 L 313.991 325.072 L 319.312 327.774 L 324.892 330.356 L 330.814 332.85 L 337.08 335.246 L 343.775 337.565 L 350.899 339.793 L 358.538 341.947 L 366.692 344.012 L 375.447 345.999 L 384.889 347.912 L 395.103 349.753 L 406.262 351.535 L 418.364 353.239 L 431.582 354.873 L 446.088 356.439 L 462.053 357.935 L 479.735 359.365 L 499.391 360.727 L 521.278 362.016 L 545.912 363.241 L 557.5 363.748" style="fill:none;stroke:#38A5DB;stroke-linecap:round;stroke-width:10;"/>
      </g>
      <g id="line2d_3">
        <path clip-path="url(#pa82c4e93f3)" d=" M 42.5 294.611 L 49.6242 294.5 L 56.6625 294.169 L 63.7008 293.615 L 70.5675 292.853 L 77.3483 291.876 L 83.9575 290.7 L 90.395 289.328 L 96.6608 287.764 L 102.755 286.014 L 108.677 284.082 L 114.428 281.973 L 120.093 279.657 L 125.587 277.172 L 131.08 274.442 L 136.488 271.506 L 141.981 268.271 L 147.646 264.673 L 153.74 260.533 L 161.036 255.293 L 175.542 244.799 L 179.833 242.019 L 183.352 239.99 L 186.442 238.459 L 189.189 237.337 L 191.764 236.523 L 194.167 235.996 L 196.485 235.72 L 198.717 235.684 L 200.862 235.872 L 203.008 236.284 L 205.154 236.924 L 207.386 237.831 L 209.618 238.978 L 212.021 240.471 L 214.51 242.284 L 217.257 244.571 L 220.261 247.376 L 223.608 250.813 L 227.642 255.288 L 233.05 261.646 L 248.757 280.3 L 254.251 286.368 L 259.315 291.629 L 264.122 296.309 L 268.928 300.678 L 273.735 304.743 L 278.542 308.518 L 283.434 312.079 L 288.413 315.43 L 293.562 318.63 L 298.884 321.676 L 304.463 324.61 L 310.214 327.383 L 316.308 330.072 L 322.66 332.63 L 329.355 335.085 L 336.479 337.458 L 344.032 339.736 L 352.015 341.91 L 360.598 344.015 L 369.782 346.035 L 379.653 347.976 L 390.297 349.839 L 401.798 351.625 L 414.33 353.343 L 427.977 354.985 L 442.912 356.556 L 459.307 358.054 L 477.418 359.482 L 497.588 360.846 L 520.077 362.138 L 545.312 363.36 L 557.5 363.879" style="fill:none;stroke:#38A5DB;stroke-linecap:round;stroke-width:10;"/>
      </g>
      <g id="line2d_4">
        <path clip-path="url(#pa82c4e93f3)" d=" M 42.5 294.611 L 51.5983 294.5 L 60.7825 294.165 L 70.0525 293.602 L 79.4942 292.804 L 89.2792 291.751 L 99.7508 290.397 L 112.025 288.574 L 142.324 283.957 L 149.792 283.125 L 156.143 282.638 L 161.808 282.424 L 167.044 282.449 L 171.937 282.691 L 176.657 283.143 L 181.292 283.808 L 185.928 284.7 L 190.562 285.818 L 195.283 287.185 L 200.262 288.86 L 205.498 290.858 L 211.248 293.294 L 217.858 296.341 L 226.183 300.439 L 258.972 316.837 L 267.641 320.772 L 275.881 324.269 L 283.949 327.453 L 292.103 330.433 L 300.429 333.236 L 308.927 335.862 L 317.767 338.36 L 326.952 340.723 L 336.651 342.987 L 346.865 345.141 L 357.68 347.192 L 369.267 349.16 L 381.627 351.031 L 394.932 352.818 L 409.352 354.527 L 424.973 356.151 L 442.054 357.7 L 460.766 359.17 L 481.452 360.567 L 504.369 361.889 L 529.947 363.136 L 557.5 364.267" style="fill:none;stroke:#38A5DB;stroke-linecap:round;stroke-width:10;"/>
      </g>
      
      
      
      
      
      
      
    </g>
  </g>
</svg>